# xmcd
#
# Track frame offsets:
# 150
# 14404
# 29606
# 47951
# 69474
# 84613
# 104483
# 124160
# 147896
# 169389
# 182379
#
# Disc length: 2749 seconds
#
#
# Revision: 0
# Processed by: cddbd v1.5.1PL0 Copyright (c) Steve Scherf et al.
# Submitted via: FreeRIP 2.60 
#
DISCID=9b0abb0b
DTITLE=Maddy Leigh Blues Band - Nickels and Dimes
DYEAR=2002
DGENRE=Blues
TTITLE0=Faith To Follow
TTITLE1=Nickels and Dimes
TTITLE2=Moonlit Shuffle
TTITLE3=Impossible Things
TTITLE4=Your Voice
TTITLE5=Feet
TTITLE6=Heaven Sent
TTITLE7=Heather's Song
TTITLE8=Moan, Moan, Moan
TTITLE9=Takin' It Easy
TTITLE10=Amazing Grace
EXTD=
EXTT0=
EXTT1=
EXTT2=
EXTT3=
EXTT4=
EXTT5=
EXTT6=
EXTT7=
EXTT8=
EXTT9=
EXTT10=
PLAYORDER=
